<svg xmlns="http://www.w3.org/2000/svg" viewBox="0 0 64 64" width="64" height="64">
  <defs>
    <linearGradient id="bg" x1="0" y1="0" x2="1" y2="1">
      <stop offset="0%" stop-color="#1a1a1a" />
      <stop offset="100%" stop-color="#0a0a0a" />
    </linearGradient>
    <linearGradient id="bolt" x1="0" y1="0" x2="0" y2="1">
      <stop offset="0%" stop-color="#ff4f5a" />
      <stop offset="100%" stop-color="#d61026" />
    </linearGradient>
  </defs>
  <rect width="64" height="64" rx="14" fill="url(#bg)" />
  <!-- Water waves -->
  <path
    d="M6 46c4 0 4-2 8-2s4 2 8 2 4-2 8-2 4 2 8 2 4-2 8-2 4 2 8 2v6H6z"
    fill="#1f2a44"
    opacity="0.8"
  />
  <path
    d="M6 52c4 0 4-2 8-2s4 2 8 2 4-2 8-2 4 2 8 2 4-2 8-2 4 2 8 2v4H6z"
    fill="#0f1626"
  />
  <!-- Ship hull -->
  <path
    d="M10 40h44l-4 8H14z"
    fill="#e5e7eb"
  />
  <!-- Deck -->
  <rect x="16" y="30" width="32" height="10" rx="1.5" fill="#f3f4f6" />
  <rect x="20" y="22" width="12" height="8" fill="#d1d5db" />
  <rect x="34" y="22" width="10" height="8" fill="#d1d5db" />
  <!-- Lightning bolt overlay -->
  <path
    d="M38 8l-14 22h10l-4 18 16-24H36z"
    fill="url(#bolt)"
    stroke="#0a0a0a"
    stroke-width="1.5"
    stroke-linejoin="round"
  />
</svg>
